<svg xmlns="http://www.w3.org/2000/svg" width="24" height="24" viewBox="0 0 24 24">
    <path fill="#FFF" fill-rule="evenodd" d="M12 0c6.627 0 12 5.373 12 12s-5.373 12-12 12S0 18.627 0 12 5.373 0 12 0zm0 1C5.925 1 1 5.925 1 12s4.925 11 11 11 11-4.925 11-11S18.075 1 12 1zm0 13a7.488 7.488 0 0 1 6.769 4.286.5.5 0 1 1-.904.428 6.488 6.488 0 0 0-11.73 0 .5.5 0 1 1-.904-.428A7.488 7.488 0 0 1 12 14zm0-10a4.75 4.75 0 1 1 0 9.5A4.75 4.75 0 0 1 12 4zm0 1a3.75 3.75 0 1 0 0 7.5A3.75 3.75 0 0 0 12 5z"/>
</svg>
