<?xml version="1.0" encoding="UTF-8"?>
<svg width="24px" height="24px" viewBox="0 0 24 24" version="1.1" xmlns="http://www.w3.org/2000/svg" xmlns:xlink="http://www.w3.org/1999/xlink">
    <!-- Generator: Sketch 57.1 (83088) - https://sketch.com -->
    <title>icon-upload</title>
    <desc>Created with Sketch.</desc>
    <g id="icon-upload" stroke="none" stroke-width="1" fill="none" fill-rule="evenodd">
        <g id="overrides/icon/user-upload" fill="#FFFFFF">
            <g id="icon">
                <path d="M17.5,11 C21.0898509,11 24,13.9101491 24,17.5 C24,21.0898509 21.0898509,24 17.5,24 C13.9101491,24 11,21.0898509 11,17.5 C11,13.9101491 13.9101491,11 17.5,11 Z M17.5,12 C14.4624339,12 12,14.4624339 12,17.5 C12,20.5375661 14.4624339,23 17.5,23 C20.5375661,23 23,20.5375661 23,17.5 C23,14.4624339 20.5375661,12 17.5,12 Z M17.5115408,14.0001324 L17.5427968,14.0018237 L17.548,14.002 L17.5534276,14.002821 L17.556,14.003 L17.561822,14.0038138 L17.566,14.004 L17.5739178,14.0054619 L17.569,14.005 L17.6052277,14.0110922 C17.6204743,14.0143961 17.6358347,14.018448 17.6510116,14.0232413 L17.6910366,14.0377922 C17.7045389,14.0433515 17.7182757,14.0497496 17.7317582,14.056805 C17.7440467,14.0632933 17.7556825,14.0700193 17.7670103,14.077188 L17.7785148,14.0846396 L17.789,14.092 L17.806,14.104 L17.813,14.11 L17.817,14.113 L17.8221436,14.1175937 C17.8286695,14.1230969 17.8350526,14.128764 17.8412864,14.1345887 L20.1035534,16.3964466 C20.2988155,16.5917088 20.2988155,16.9082912 20.1035534,17.1035534 C19.929987,17.2771197 19.6605626,17.2964049 19.4656945,17.1614088 L19.3964466,17.1035534 L18,15.707 L18,20.5 C18,20.7761424 17.7761424,21 17.5,21 C17.2545401,21 17.0503916,20.8231248 17.0080557,20.5898756 L17,20.5 L17,15.706 L15.6035534,17.1035534 C15.429987,17.2771197 15.1605626,17.2964049 14.9656945,17.1614088 L14.8964466,17.1035534 C14.7228803,16.929987 14.7035951,16.6605626 14.8385912,16.4656945 L14.8964466,16.3964466 L17.1588667,14.1344405 C17.1711813,14.1229392 17.1842458,14.1119203 17.1978561,14.1015827 C17.2093908,14.0927745 17.2211654,14.0846093 17.2331935,14.077007 C17.2443175,14.0700193 17.2559533,14.0632933 17.2678728,14.0570343 C17.2817243,14.0497496 17.2954611,14.0433515 17.3094049,14.0376106 C17.3219749,14.0324085 17.3352631,14.0275581 17.3488008,14.0232684 C17.3641653,14.018448 17.3795257,14.0143961 17.3950129,14.0110857 L17.4257565,14.0054743 C17.4470942,14.0023382 17.468267,14.0005544 17.4894626,14.0001104 L17.5115408,14.0001324 Z M3.90467503,10.9176598 C6.31202672,9.60269168 9.24521518,9.70686669 11.5532143,11.1893051 C11.7855577,11.3385403 11.8529302,11.6478709 11.7036949,11.8802143 C11.5544597,12.1125577 11.2451291,12.1799302 11.0127857,12.0306949 C9.01251982,10.745915 6.47042315,10.65563 4.38405169,11.7952691 C2.44490848,12.8544876 1.18701791,14.8191493 1.01919541,17 L1.01919541,17 L8.5,17 C8.77614237,17 9,17.2238576 9,17.5 C9,17.7761424 8.77614237,18 8.5,18 L8.5,18 L0.5,18 C0.223857625,18 1.86517468e-14,17.7761424 1.86517468e-14,17.5 C1.86517468e-14,14.7568728 1.49737765,12.2325983 3.90467503,10.9176598 Z M17.791,14.094 L17.8535534,14.1464466 L17.821,14.117 L17.813,14.11 L17.791,14.094 Z M17.563,14.004 L17.569,14.005 L17.566,14.004 L17.563,14.004 Z M17.548,14.002 L17.563,14.004 L17.556,14.003 L17.548,14.002 Z M7.5,0 C10.1233526,0 12.25,2.12664744 12.25,4.75 C12.25,7.37335256 10.1233526,9.5 7.5,9.5 C4.87664744,9.5 2.75,7.37335256 2.75,4.75 C2.75,2.12664744 4.87664744,0 7.5,0 Z M7.5,1 C5.42893219,1 3.75,2.67893219 3.75,4.75 C3.75,6.82106781 5.42893219,8.5 7.5,8.5 C9.57106781,8.5 11.25,6.82106781 11.25,4.75 C11.25,2.67893219 9.57106781,1 7.5,1 Z" id="icon-user-upload"></path>
            </g>
        </g>
    </g>
</svg>