<?xml version="1.0" encoding="UTF-8"?>
<svg width="24px" height="24px" viewBox="0 0 24 24" version="1.1" xmlns="http://www.w3.org/2000/svg" xmlns:xlink="http://www.w3.org/1999/xlink">
    <!-- Generator: Sketch 57.1 (83088) - https://sketch.com -->
    <title>icon-view</title>
    <desc>Created with Sketch.</desc>
    <g id="icon-view" stroke="none" stroke-width="1" fill="none" fill-rule="evenodd">
        <g id="overrides/icon/view" fill="#FFFFFF">
            <path d="M12,5 C6.85720137,5 2.43686007,7.89802048 0,11.9624573 C2.43481229,16.0232082 6.8531058,18.9249147 12,18.9249147 C17.1432082,18.9249147 21.5631399,16.0268942 24,11.9624573 C21.5647782,7.90170648 17.1468942,5 12,5 Z M17.3242321,11.9624573 C17.3242321,14.9112628 14.9488055,17.2866894 12,17.2866894 C9.05119454,17.2866894 6.67576792,14.9112628 6.67576792,11.9624573 C6.67576792,9.01365188 9.05119454,6.63822526 12,6.63822526 C14.9488055,6.63822526 17.3242321,9.01365188 17.3242321,11.9624573 Z M1.92491468,11.9624573 C2.49829352,11.1843003 3.89078498,9.46416382 6.14334471,8.19453925 C5.44709898,9.3003413 5.03754266,10.5699659 5.03754266,11.9624573 C5.03754266,13.3549488 5.44709898,14.6245734 6.14334471,15.7303754 C3.93174061,14.4607509 2.49829352,12.7406143 1.92491468,11.9624573 Z M17.8566553,15.7303754 C18.552901,14.6245734 18.9624573,13.3549488 18.9624573,11.9624573 C18.9624573,10.5699659 18.552901,9.3003413 17.8566553,8.19453925 C20.0682594,9.46416382 21.5017065,11.1843003 22.0750853,11.9624573 C21.5017065,12.7406143 20.0682594,14.4607509 17.8566553,15.7303754 Z M9.54266212,11.9624573 C9.54266212,10.6109215 10.6484642,9.50511945 12,9.50511945 C13.3515358,9.50511945 14.4573379,10.6109215 14.4573379,11.9624573 C14.4573379,13.3139932 13.3515358,14.4197952 12,14.4197952 C10.6484642,14.4197952 9.54266212,13.3139932 9.54266212,11.9624573 Z" id="icon-show"></path>
        </g>
    </g>
</svg>