<?xml version="1.0" encoding="UTF-8"?>
<svg width="24px" height="24px" viewBox="0 0 24 24" version="1.1" xmlns="http://www.w3.org/2000/svg" xmlns:xlink="http://www.w3.org/1999/xlink">
    <!-- Generator: Sketch 57.1 (83088) - https://sketch.com -->
    <title>icon-alerts</title>
    <desc>Created with Sketch.</desc>
    <g id="icon-alerts" stroke="none" stroke-width="1" fill="none" fill-rule="evenodd">
        <g id="overrides/icon/alert" fill="#FFFFFF">
            <g id="icon" transform="translate(2.000000, 0.000000)">
                <path d="M12.5494987,21.01 L12.5494987,21.01 C12.8201183,21.0649516 12.9949516,21.3288792 12.94,21.5994987 C12.6560845,22.9976931 11.426729,24.0025063 10,24.0025063 C8.57327103,24.0025063 7.34391548,22.9976931 7.06,21.5994987 C7.00504836,21.3288792 7.17988173,21.0649516 7.45050126,21.01 C7.72112078,20.9550484 7.98504836,21.1298817 8.04,21.4005013 C8.22927699,22.3326308 9.04884736,23.0025063 10,23.0025063 C10.9511526,23.0025063 11.770723,22.3326308 11.96,21.4005013 C12.0027402,21.1900194 12.1718979,21.0374823 12.372297,21.0059373 L12.4598176,21.0000095 Z M10,0.001 C10.2454599,0.001 10.4496084,0.177875161 10.4919443,0.411124368 L10.5,0.501 L10.5004728,3.01448923 C14.9619397,3.27353208 18.5,6.97358691 18.5,11.5 L18.5,18 C18.5,18.5522847 18.9477153,19 19.5,19 L19.5,20 L0.5,20 L0.5,19 C1.05228475,19 1.5,18.5522847 1.5,18 L1.5,11.5 C1.5,6.97324955 5.03858773,3.27298054 9.50052481,3.01443136 L9.5,0.501 C9.5,0.224857625 9.72385763,0.001 10,0.001 Z M10,4 C5.85786438,4 2.5,7.35786438 2.5,11.5 L2.5,18 C2.5,18.3642871 2.40260571,18.7058266 2.23243561,19 L17.7675644,19 C17.5973943,18.7058266 17.5,18.3642871 17.5,18 L17.5,11.5 C17.5,7.3612067 14.1475524,4.00541948 10.0100254,4.00000656 L9.98979673,4.00089796 L10,4 Z M12.0520968,6.74677778 C12.1748267,6.49940767 12.4748521,6.39836685 12.7222222,6.52109679 C14.4237008,7.36526659 15.4999456,9.10060364 15.5,10.9999857 C15.5,11.2761281 15.2761567,11.5 15.0000143,11.5 C14.7238719,11.5 14.5000079,11.2761567 14.5,11.0000143 C14.4999565,9.48050869 13.6389607,8.09223904 12.2777778,7.41690321 C12.0304077,7.29417326 11.9293668,6.99414789 12.0520968,6.74677778 Z" id="icon-alert"></path>
            </g>
        </g>
    </g>
</svg>