<?xml version="1.0" encoding="UTF-8"?>
<svg width="24px" height="24px" viewBox="0 0 24 24" version="1.1" xmlns="http://www.w3.org/2000/svg" xmlns:xlink="http://www.w3.org/1999/xlink">
    <!-- Generator: Sketch 57.1 (83088) - https://sketch.com -->
    <title>icon-logout</title>
    <desc>Created with Sketch.</desc>
    <g id="icon-logout" stroke="none" stroke-width="1" fill="none" fill-rule="evenodd">
        <g id="overrides/icon/logout" fill="#0085CD">
            <g id="icon">
                <path d="M1.5,0 L12.5,0 C13.2796961,0 13.9204487,0.594888083 13.9931334,1.35553999 L14,1.5 L14,5 C14,5.27614237 13.7761424,5.5 13.5,5.5 C13.2545401,5.5 13.0503916,5.32312484 13.0080557,5.08987563 L13,5 L13,1.5 C13,1.25454011 12.8231248,1.05039163 12.5898756,1.00805567 L12.5,1 L1.5,1 C1.25454011,1 1.05039163,1.17687516 1.00805567,1.41012437 L1,1.5 L1,22.5 C1,22.7454599 1.17687516,22.9496084 1.41012437,22.9919443 L1.5,23 L12.5,23 C12.7454599,23 12.9496084,22.8231248 12.9919443,22.5898756 L13,22.5 L13,19 C13,18.7238576 13.2238576,18.5 13.5,18.5 C13.7454599,18.5 13.9496084,18.6768752 13.9919443,18.9101244 L14,19 L14,22.5 C14,23.2796961 13.4051119,23.9204487 12.64446,23.9931334 L12.5,24 L1.5,24 C0.720303883,24 0.0795513218,23.4051119 0.00686657806,22.64446 L0,22.5 L0,1.5 C0,0.720303883 0.594888083,0.0795513218 1.35553999,0.00686657806 L1.5,0 L12.5,0 Z M18.1464466,6.64644661 C18.3417088,6.45118446 18.6582912,6.45118446 18.8535534,6.64644661 L18.8535534,6.64644661 L23.8535534,11.6464466 C23.857641,11.6505342 23.861643,11.654675 23.8655595,11.6588667 C23.8770608,11.6711813 23.8880797,11.6842458 23.8984173,11.6978561 C23.9072255,11.7093908 23.9153907,11.7211654 23.922993,11.7331935 C23.9299807,11.7443175 23.9367067,11.7559533 23.9429657,11.7678728 C23.9502504,11.7817243 23.9566485,11.7954611 23.9623894,11.8094049 C23.9675915,11.8219749 23.9724419,11.8352631 23.9767316,11.8488008 C23.981552,11.8641653 23.9856039,11.8795257 23.9889143,11.8950129 C23.9912332,11.905629 23.9932062,11.9166163 23.9948142,11.9277219 C23.9973429,11.945461 23.9989382,11.9629328 23.9996194,11.9804335 C23.9998635,11.9863952 24,11.9931817 24,12 L23.9995793,12.0205695 C23.998877,12.0377348 23.9972949,12.0548708 23.9948333,12.0719041 L24,12 C24,12.036097 23.9961748,12.0713007 23.9889078,12.1052277 C23.9856039,12.1204743 23.981552,12.1358347 23.9767587,12.1510116 C23.9724419,12.1647369 23.9675915,12.1780251 23.9622078,12.1910366 C23.9566485,12.2045389 23.9502504,12.2182757 23.943195,12.2317582 C23.9367067,12.2440467 23.9299807,12.2556825 23.922812,12.2670103 C23.9035342,12.2975936 23.8803877,12.3267191 23.8535534,12.3535534 L23.8984173,12.3021439 C23.8880797,12.3157542 23.8770608,12.3288187 23.8654113,12.3412864 L23.8535534,12.3535534 L18.8535534,17.3535534 C18.6582912,17.5488155 18.3417088,17.5488155 18.1464466,17.3535534 C17.9511845,17.1582912 17.9511845,16.8417088 18.1464466,16.6464466 L18.1464466,16.6464466 L22.292,12.5 L4.5,12.5 C4.22385763,12.5 4,12.2761424 4,12 C4,11.7545401 4.17687516,11.5503916 4.41012437,11.5080557 L4.5,11.5 L22.292,11.5 L18.1464466,7.35355339 C17.9728803,7.17998704 17.9535951,6.91056264 18.0885912,6.7156945 Z" id="icon-logout"></path>
            </g>
        </g>
    </g>
</svg>