<svg xmlns="http://www.w3.org/2000/svg" width="12" height="14" viewBox="0 0 12 10">
    <g fill="none" fill-rule="evenodd">
        <g fill="#0085CD">
            <g>
                <g>
                    <path d="M83 16c.552 0 1 .448 1 1s-.448 1-1 1H73c-.552 0-1-.448-1-1s.448-1 1-1h10zm0-4c.552 0 1 .448 1 1s-.448 1-1 1H73c-.552 0-1-.448-1-1s.448-1 1-1h10zm0-4c.552 0 1 .448 1 1s-.448 1-1 1H73c-.552 0-1-.448-1-1s.448-1 1-1h10z" transform="translate(-1142 -189) translate(80 176) translate(990 5)"/>
                </g>
            </g>
        </g>
    </g>
</svg>
