<svg xmlns="http://www.w3.org/2000/svg" width="14" height="14" viewBox="0 0 14 14">
    <g fill="none" fill-rule="evenodd">
        <g fill="#0085CD">
            <g>
                <g>
                    <path d="M105 14c.552 0 1 .448 1 1v4c0 .552-.448 1-1 1h-4c-.552 0-1-.448-1-1v-4c0-.552.448-1 1-1h4zm8 0c.552 0 1 .448 1 1v4c0 .552-.448 1-1 1h-4c-.552 0-1-.448-1-1v-4c0-.552.448-1 1-1h4zm-8-8c.552 0 1 .448 1 1v4c0 .552-.448 1-1 1h-4c-.552 0-1-.448-1-1V7c0-.552.448-1 1-1h4zm8 0c.552 0 1 .448 1 1v4c0 .552-.448 1-1 1h-4c-.552 0-1-.448-1-1V7c0-.552.448-1 1-1h4z" transform="translate(-1170 -187) translate(80 176) translate(990 5)"/>
                </g>
            </g>
        </g>
    </g>
</svg>
