<?xml version="1.0" encoding="UTF-8"?>
<svg width="24px" height="24px" viewBox="0 0 24 24" version="1.1" xmlns="http://www.w3.org/2000/svg" xmlns:xlink="http://www.w3.org/1999/xlink">
    <!-- Generator: Sketch 57.1 (83088) - https://sketch.com -->
    <title>icon-hide</title>
    <desc>Created with Sketch.</desc>
    <g id="icon-hide" stroke="none" stroke-width="1" fill="none" fill-rule="evenodd">
        <g id="overrides/icon/hide" fill="#0085CD">
            <path d="M18.5633904,6.86489046 L22.1845319,3.34163315 C22.4938941,3.04041198 22.5,2.54583937 22.1987788,2.23647709 C21.8995929,1.92660607 21.4050203,1.92100905 21.0936228,2.22121254 L17.0838068,6.12264993 C15.6100747,5.49546632 13.9134158,5.07416372 12,5.07416372 C4.52238802,5.07416372 0.301221192,11.4634107 0.125169645,11.7356291 C-0.0417232151,11.9936006 -0.0417232151,12.3263685 0.125169645,12.58434 C0.2401629,12.7621089 2.09067588,15.5428712 5.43660959,17.4550787 L1.81546814,20.978336 C1.50610586,21.2795571 1.5,21.7741298 1.80122116,22.083492 C1.95386705,22.2412261 2.15739487,22.3200931 2.36092268,22.3200931 C2.55732706,22.3200931 2.75373134,22.2463143 2.90637722,22.0987567 L6.91619317,18.1973193 C8.38992535,18.8245029 10.0865842,19.2458055 12,19.2458055 C19.477612,19.2458055 23.6987788,12.8565585 23.8748304,12.5843401 C24.0417232,12.3263686 24.0417232,11.9936007 23.8748304,11.7356292 C23.7598372,11.5578603 21.9093241,8.77709791 18.5633904,6.86489046 Z M12,6.68915695 C13.2528409,6.68915695 14.3946956,7.1294131 15.3180758,7.84061559 L14.1967012,8.93171548 C13.5700263,8.50392542 12.8141748,8.25225057 12,8.25225057 C9.84565809,8.25225057 8.09226595,10.0051339 8.09226595,12.1599846 C8.09226595,12.9355528 8.32594136,13.6548328 8.71709637,14.2632538 L7.58618136,15.3636396 C6.92885006,14.4608666 6.52917233,13.3596539 6.52917233,12.1599846 C6.52917233,9.14319361 8.98371783,6.68915695 12,6.68915695 Z M14.3446404,12.1599846 C14.3446404,13.4528951 13.2924017,14.504625 12,14.504625 C11.6281165,14.504625 11.2809744,14.409603 10.9682412,14.2547946 L14.124894,11.1834327 C14.2626569,11.4816646 14.3446404,11.8104892 14.3446404,12.1599846 Z M9.65535957,12.1599846 C9.65535957,10.8670741 10.7075983,9.81534419 12,9.81534419 C12.3718199,9.81534419 12.7190256,9.91036621 13.0317588,10.0651746 L9.87516961,13.136473 C9.73747034,12.8382411 9.65535957,12.5094801 9.65535957,12.1599846 Z M12,17.6308123 C10.7471591,17.6308123 9.60530442,17.1905561 8.68192416,16.4793536 L9.80329877,15.3882537 C10.4299737,15.8160438 11.1858252,16.0677187 12,16.0677187 C14.1543419,16.0677187 15.907734,14.3148354 15.907734,12.1599846 C15.907734,11.3844164 15.6740586,10.6651364 15.2829036,10.0567154 L16.4138186,8.95632962 C17.0711499,9.85910268 17.4708277,10.9603154 17.4708277,12.1599846 C17.4708277,15.1767756 15.0162823,17.6308123 12,17.6308123 Z M1.74525105,12.1589669 C2.35691574,11.3585938 3.87039948,9.59610655 6.14132462,8.27546542 C5.40022901,9.38946224 4.96607871,10.7245411 4.96607871,12.1599846 C4.96607871,13.5915484 5.39825732,14.923002 6.13566403,16.0352178 C3.87173509,14.7146403 2.35748815,12.9570504 1.74525105,12.1589669 Z M17.8586754,16.0445038 C18.599771,14.930507 19.0339213,13.5954281 19.0339213,12.1599846 C19.0339213,10.7284208 18.6017427,9.39696728 17.864336,8.28475145 C20.1282649,9.60532891 21.6425119,11.3629189 22.2547489,12.1610023 C21.6430843,12.9613754 20.1296005,14.7238627 17.8586754,16.0445038 Z" id="icon-hide"></path>
        </g>
    </g>
</svg>