<svg xmlns="http://www.w3.org/2000/svg" width="24" height="24" viewBox="0 0 24 24">
    <path fill="#FFF" fill-rule="evenodd" d="M12.5 0A1.5 1.5 0 0 1 14 1.5v1.849c.797.188 1.573.455 2.317.798l1.34-1.339a1.5 1.5 0 0 1 2.12 0l1.419 1.415a1.5 1.5 0 0 1 0 2.12l-1.34 1.339a12.3 12.3 0 0 1 .8 2.318H22.5a1.5 1.5 0 0 1 1.5 1.5v1a1.5 1.5 0 0 1-1.5 1.5h-1.844c-.19.8-.458 1.577-.802 2.323l1.339 1.34a1.5 1.5 0 0 1 0 2.12l-1.415 1.415a1.5 1.5 0 0 1-2.12 0l-1.341-1.34a12.3 12.3 0 0 1-2.317.8V22.5a1.5 1.5 0 0 1-1.5 1.5h-1a1.5 1.5 0 0 1-1.5-1.5v-1.848a12.3 12.3 0 0 1-2.318-.798l-1.34 1.34a1.5 1.5 0 0 1-2.12 0l-1.42-1.415a1.5 1.5 0 0 1 0-2.12l1.34-1.34c-.342-.745-.61-1.52-.798-2.318H1.5a1.5 1.5 0 0 1-1.5-1.5v-1a1.5 1.5 0 0 1 1.5-1.5h1.848c.188-.797.456-1.573.798-2.317l-1.34-1.34a1.5 1.5 0 0 1 0-2.12l1.415-1.416a1.5 1.5 0 0 1 2.121 0l1.34 1.337c.744-.343 1.52-.61 2.318-.798V1.5A1.5 1.5 0 0 1 11.5 0zm0 1h-1a.5.5 0 0 0-.5.5v2.249a.5.5 0 0 1-.401.49c-.97.195-1.911.517-2.797.958a.5.5 0 0 1-.576-.094l-1.59-1.587a.5.5 0 0 0-.707 0L3.514 4.93a.5.5 0 0 0 0 .706l1.59 1.59a.5.5 0 0 1 .094.575c-.44.887-.762 1.827-.958 2.798a.5.5 0 0 1-.49.401H1.5a.5.5 0 0 0-.5.5v1a.5.5 0 0 0 .5.5h2.246a.5.5 0 0 1 .49.401c.196.97.518 1.911.958 2.798a.5.5 0 0 1-.094.576l-1.59 1.59a.5.5 0 0 0-.001.706l1.42 1.414a.5.5 0 0 0 .706 0l1.59-1.59a.5.5 0 0 1 .575-.094 11.3 11.3 0 0 0 2.799.958.5.5 0 0 1 .401.49v2.25a.5.5 0 0 0 .5.5h1a.5.5 0 0 0 .5-.5v-2.245a.5.5 0 0 1 .401-.49 11.3 11.3 0 0 0 2.797-.958.5.5 0 0 1 .575.094l1.591 1.59a.5.5 0 0 0 .707 0l1.414-1.415a.5.5 0 0 0 0-.707l-1.589-1.59a.5.5 0 0 1-.094-.576c.442-.888.766-1.83.962-2.802a.5.5 0 0 1 .49-.401H22.5a.5.5 0 0 0 .5-.5v-1a.5.5 0 0 0-.5-.5h-2.247a.5.5 0 0 1-.49-.401 11.3 11.3 0 0 0-.958-2.799.5.5 0 0 1 .095-.576l1.588-1.588a.5.5 0 0 0 0-.706L19.07 3.516a.5.5 0 0 0-.707 0l-1.59 1.589a.5.5 0 0 1-.576.094 11.269 11.269 0 0 0-2.796-.958.5.5 0 0 1-.401-.49V1.5a.5.5 0 0 0-.5-.5zM12 7.001a5 5 0 1 1 0 10 5 5 0 0 1 0-10zm0 1a4 4 0 1 0 0 8 4 4 0 0 0 0-8z"/>
</svg>
