<svg xmlns="http://www.w3.org/2000/svg" width="24" height="24" viewBox="0 0 24 24">
    <path fill="#0085CD" fill-rule="evenodd" d="M11.293 6.293c.39-.39 1.024-.39 1.414 0 .39.39.39 1.024 0 1.414L9.414 11H17c.513 0 .936.386.993.883L18 12c0 .552-.448 1-1 1H9.414l3.293 3.293c.36.36.388.928.083 1.32l-.083.094c-.39.39-1.024.39-1.414 0l-5-5-.073-.082-.007-.008-.017-.022c-.018-.024-.034-.049-.05-.074l-.021-.037c-.011-.02-.022-.04-.031-.06l-.023-.053-.021-.06-.014-.045-.016-.065-.009-.053C6.004 12.1 6 12.051 6 12l.004.09L6 12.02V12v-.02c0-.022.002-.046.004-.07l.007-.059.01-.052c.004-.022.009-.043.015-.065l.014-.046.021-.06.023-.051.03-.061.022-.037c.016-.025.032-.05.05-.074.03-.04.061-.077.097-.112l-.08.09c.025-.031.051-.062.08-.09z"/>
</svg>
