<svg xmlns="http://www.w3.org/2000/svg" width="24" height="24" viewBox="0 0 24 24">
    <g fill="none" fill-rule="evenodd">
        <g fill="#303030">
            <g>
                <g>
                    <g>
                        <path d="M12.342.5c2.906.046 5.688 1.207 7.767 3.25 2.163 2.126 3.384 5.028 3.391 8.06.016 6.386-5.107 11.597-11.492 11.69-3.031.046-5.954-1.125-8.117-3.249C1.73 18.126.508 15.225.5 12.193.482 5.906 5.447.756 11.694.508L11.993.5h.349zm-.335 1l-.286.008C6.016 1.74 1.484 6.447 1.5 12.19c.007 2.764 1.12 5.41 3.092 7.347 1.972 1.937 4.637 3.004 7.4 2.962 5.839-.085 10.523-4.85 10.508-10.688-.007-2.764-1.12-5.41-3.092-7.348-1.971-1.938-4.637-3.005-7.4-2.964zm.493 12.505v-7c0-.276-.224-.5-.5-.5s-.5.224-.5.5v7c0 .276.224.5.5.5s.5-.224.5-.5zm-.482 1.5h-.035c-.2.003-.392.087-.53.233-.138.146-.21.342-.203.542.015.403.346.724.751.725.212-.004.402-.088.54-.234.137-.145.21-.34.203-.54-.013-.393-.33-.712-.726-.726z" transform="translate(-1094 -260) translate(80 236) translate(990) translate(24 24)"/>
                    </g>
                </g>
            </g>
        </g>
    </g>
</svg>
