<svg xmlns="http://www.w3.org/2000/svg" width="108" height="32" viewBox="0 0 108 32">
    <path fill="#071012" fill-rule="nonzero" d="M15.892 0c6.363 0 11.748 3.389 14.476 9.086l.151.325.511 1.124h-7.704l-.238-.31c-1.85-2.407-3.9-3.388-7.077-3.388-5.095 0-8.938 3.913-8.938 9.103 0 5.086 4.063 9.223 9.057 9.223 2.521 0 4.355-.835 6.452-2.961l.243-.251.234-.247h7.944l-.476 1.11C28.091 28.48 22.62 32 16.247 32 7.29 32 0 24.778 0 15.9 0 7.133 7.129 0 15.892 0zm32 0c6.362 0 11.747 3.389 14.476 9.086l.151.325.511 1.124h-7.703l-.239-.31c-1.85-2.407-3.9-3.388-7.076-3.388-5.096 0-8.94 3.913-8.94 9.103 0 5.086 4.064 9.223 9.058 9.223 2.52 0 4.355-.835 6.451-2.961l.243-.251.235-.247h7.945l-.476 1.11C60.09 28.48 54.619 32 48.248 32 39.287 32 32 24.778 32 15.9 32 7.133 39.128 0 47.892 0zm27.337 0c4.267 0 6.51.623 8.57 2.382 2.183 1.84 3.389 4.63 3.389 7.856 0 4.655-2.365 7.903-6.861 9.47l-.31.103 8.225 11.22h-8.73l-6.516-9.5v9.5h-7.057V0h9.29zm18.428.97c3.043 0 5.253 1.942 5.252 4.618 0 1.383-.534 2.436-1.592 3.137 1.057.703 1.59 1.756 1.592 3.141 0 2.677-2.21 4.619-5.253 4.619-2.919 0-5.095-1.714-5.37-4.194l-.02-.215-.024-.379h3.365l.045.308c.153 1.03.913 1.669 1.984 1.669 1.102 0 1.902-.739 1.902-1.757 0-.797-.523-1.387-1.443-1.637l-.177-.043-.848.01a9.664 9.664 0 0 0-.3-.018l-.144-.004-.368-.01V7.318l.371-.09.211-.007.199-.012.964-.002c.945-.212 1.536-.824 1.536-1.671 0-1.018-.8-1.756-1.902-1.756-1.013 0-1.747.57-1.953 1.5l-.031.168-.045.308h-3.365l.024-.379C88.438 2.782 90.654.97 93.657.97zM74.63 6.81h-1.634v7.25h1.873c4.334 0 5.223-1.464 5.223-3.664 0-1.89-.418-3.586-5.462-3.586zm29.174-6.81a3.883 3.883 0 0 1 3.832 3.924 3.883 3.883 0 0 1-3.878 3.833h-.046a3.883 3.883 0 0 1-3.833-3.925A3.883 3.883 0 0 1 103.757 0zm-.007.553h-.04a3.329 3.329 0 0 0-3.325 3.285 3.33 3.33 0 0 0 3.286 3.365h.04a3.33 3.33 0 0 0 3.325-3.286 3.33 3.33 0 0 0-3.286-3.364zM102.547 2l1.524.017c.244.003.457.038.64.107.183.068.325.16.429.275.102.116.178.242.226.38.047.136.07.284.069.44-.003.251-.074.47-.212.658-.11.15-.26.268-.45.352l-.15.058.877 1.592-.702-.008-.8-1.47-.843-.009-.019 1.46-.636-.007.048-3.845zm.63.566l-.016 1.285.818.009h.019c.11 0 .21-.012.3-.035a.722.722 0 0 0 .231-.098.59.59 0 0 0 .259-.5.773.773 0 0 0-.017-.18.577.577 0 0 0-.07-.173.497.497 0 0 0-.138-.151.722.722 0 0 0-.231-.105 1.12 1.12 0 0 0-.214-.037l-.123-.006-.818-.009z"/>
</svg>
