<svg xmlns="http://www.w3.org/2000/svg" width="138" height="41" viewBox="0 0 138 41">
    <path fill="#FFF" fill-rule="nonzero" d="M20.486 0c8.22 0 15.174 4.36 18.683 11.69l.172.368.659 1.44h-9.93l-.308-.398c-2.385-3.083-5.027-4.34-9.122-4.34-6.57 0-11.522 5.013-11.522 11.663 0 6.516 5.237 11.817 11.675 11.817 3.262 0 5.632-1.078 8.348-3.825l.282-.29.302-.317h10.24l-.613 1.422C36.212 36.49 29.159 41 20.945 41 9.395 41 0 31.746 0 20.372 0 9.14 9.19 0 20.486 0zm41 0c8.219 0 15.172 4.36 18.683 11.69l.172.368.659 1.44h-9.93l-.308-.398c-2.385-3.083-5.027-4.34-9.122-4.34-6.568 0-11.523 5.013-11.523 11.663 0 6.516 5.238 11.817 11.675 11.817 3.262 0 5.632-1.078 8.348-3.825l.282-.29.302-.317h10.243l-.615 1.422C77.21 36.49 70.158 41 61.944 41 50.395 41 41 31.746 41 20.372 41 9.14 50.189 0 61.485 0zm34.176 1c5.357 0 8.173.783 10.76 2.994 2.74 2.312 4.254 5.82 4.254 9.873 0 5.869-2.987 9.959-8.665 11.92l-.337.113L112 40h-10.96l-8.18-11.939V40H84V1h11.662zM119.6 1C123.308 1 126 3.629 126 7.25c0 1.873-.651 3.298-1.94 4.247 1.288.95 1.938 2.376 1.94 4.252 0 3.622-2.693 6.251-6.402 6.251-3.576 0-6.237-2.344-6.55-5.73l-.018-.237-.03-.513h4.101l.055.417c.186 1.393 1.112 2.258 2.418 2.258 1.342 0 2.318-1 2.318-2.377 0-1.087-.647-1.888-1.78-2.223l-.194-.051-1.035.012c-.131-.01-.248-.018-.365-.023l-.176-.006-.448-.013V9.593l.452-.121c.118-.003.23-.008.34-.015l.16-.013 1.175-.002c1.151-.286 1.872-1.115 1.872-2.262 0-1.377-.976-2.377-2.319-2.377-1.25 0-2.151.792-2.39 2.08l-.028.178-.054.418H113l.03-.514C113.237 3.453 115.938 1 119.598 1zM94.91 9.56h-2.052v9.113h2.352c5.441 0 6.556-1.841 6.556-4.605 0-2.375-.524-4.507-6.856-4.507zM133.553 1c2.482.033 4.477 2.303 4.447 5.06-.03 2.736-2.043 4.94-4.499 4.94h-.054c-2.482-.033-4.477-2.303-4.447-5.06.03-2.736 2.043-4.94 4.499-4.94zm-.007.714l-.047-.001c-2.106 0-3.832 1.89-3.857 4.236-.025 2.364 1.685 4.31 3.812 4.337l.047.001c2.106 0 3.832-1.89 3.857-4.236.025-2.364-1.685-4.31-3.812-4.337zM131.064 3l2.03.022c.326.004.61.049.854.137.244.089.434.207.572.356.136.149.237.311.301.488s.094.367.092.569a1.395 1.395 0 0 1-.282.848 1.468 1.468 0 0 1-.632.467l-.168.06L135 8l-.936-.01-1.067-1.894-1.124-.012-.025 1.881-.848-.009.064-4.956zm.839.73l-.022 1.656 1.09.011h.026c.147 0 .28-.015.4-.044a.98.98 0 0 0 .308-.126.775.775 0 0 0 .31-.41.964.964 0 0 0 .013-.468.73.73 0 0 0-.093-.222.649.649 0 0 0-.184-.195.979.979 0 0 0-.309-.135 1.54 1.54 0 0 0-.284-.048l-.164-.008-1.091-.011z"/>
</svg>
