<svg xmlns="http://www.w3.org/2000/svg" width="181" height="54" viewBox="0 0 181 54">
    <path fill="#FFF" fill-rule="nonzero" d="M26.631 0c10.713 0 19.773 5.773 24.323 15.47l.19.411.856 1.897H39.09l-.4-.524c-3.1-4.061-6.535-5.717-11.858-5.717-8.54 0-14.98 6.604-14.98 15.361 0 8.583 6.81 15.564 15.179 15.564 4.265 0 7.357-1.436 10.913-5.1l.306-.32.393-.417h13.311l-.797 1.873C47.075 48.06 37.907 54 27.227 54 12.215 54 0 41.812 0 26.832 0 12.037 11.946 0 26.631 0zm54 0c10.712 0 19.77 5.773 24.323 15.47l.19.411.856 1.897H93.09l-.4-.524c-3.1-4.061-6.534-5.717-11.858-5.717-8.539 0-14.98 6.604-14.98 15.361 0 8.583 6.81 15.564 15.178 15.564 4.265 0 7.357-1.436 10.913-5.1l.306-.32.393-.417h13.315l-.8 1.873C101.074 48.06 91.906 54 81.228 54 66.214 54 54 41.812 54 26.832 54 12.037 65.946 0 80.63 0zm45.78 1c7.078 0 10.799 1.045 14.218 3.992 3.622 3.083 5.621 7.76 5.621 13.164 0 7.845-3.967 13.307-11.51 15.914l-.386.13L148 53h-14.483l-10.81-15.918V53H111V1h15.41zm31.218 0c4.85 0 8.372 3.38 8.371 8.037 0 2.407-.851 4.239-2.537 5.46 1.684 1.222 2.535 3.054 2.537 5.466 0 4.657-3.521 8.037-8.372 8.037-4.693 0-8.18-3.035-8.57-7.413l-.019-.259-.039-.66h5.363l.072.537c.243 1.79 1.454 2.903 3.161 2.903 1.756 0 3.032-1.285 3.032-3.056 0-1.41-.862-2.447-2.372-2.87l-.21-.054-1.353.016a14.119 14.119 0 0 0-.477-.03l-.23-.008-.586-.017v-5.04l.591-.157c.155-.003.302-.01.444-.02l.21-.015 1.536-.003c1.506-.368 2.448-1.433 2.448-2.908 0-1.77-1.276-3.056-3.032-3.056-1.643 0-2.826 1.029-3.13 2.7l-.032.203-.071.537H149l.039-.66c.272-4.516 3.803-7.67 8.589-7.67zm-32.211 11.414h-2.711v12.15h3.107c7.19 0 8.664-2.455 8.664-6.14 0-3.167-.693-6.01-9.06-6.01zM175.07 1.001c3.309.042 5.968 2.993 5.929 6.576C180.96 11.135 178.276 14 175 14h-.072c-3.309-.043-5.968-2.994-5.929-6.577C169.04 3.865 171.724 1 175 1zm-.072.926c-2.809 0-5.11 2.456-5.143 5.507-.034 3.072 2.246 5.602 5.082 5.638l.063.001c2.808 0 5.11-2.456 5.143-5.507.033-3.072-2.247-5.602-5.083-5.638l-.062-.001zM172.079 4l2.539.03c.407.006.762.07 1.067.193.305.124.542.29.714.498.172.208.298.436.378.684.079.247.117.513.114.795-.005.453-.123.85-.352 1.188-.197.29-.47.513-.82.667l-.18.072L177 11l-1.17-.014-1.333-2.651-1.406-.018-.03 2.635-1.061-.013.08-6.939zm1.05 1.021l-.027 2.32 1.363.015h.031c.184 0 .351-.021.5-.062.159-.044.287-.103.386-.177.098-.074.181-.162.247-.263a1.11 1.11 0 0 0 .14-.31 1.506 1.506 0 0 0 .016-.655 1.092 1.092 0 0 0-.116-.311.875.875 0 0 0-.23-.273 1.163 1.163 0 0 0-.386-.189 1.796 1.796 0 0 0-.406-.072l-.155-.006-1.363-.017z"/>
</svg>
